<svg width="40" height="40" viewBox="0 0 40 40" fill="none" xmlns="http://www.w3.org/2000/svg">
<path d="M37.1803 10.4623H39.743C39.8844 10.4623 39.9994 10.3482 39.9994 10.2071V7.45096C39.9994 5.25664 38.212 3.47773 36.0064 3.47773H35.0605L35.0602 1.96794C35.0602 0.885626 34.1703 0.000215715 33.0829 0.000215715H32.8832C31.7955 0.000215715 30.9057 0.885626 30.9057 1.96794V3.47773L26.4047 3.47742V1.96787C26.4047 0.885554 25.5149 0.00014381 24.4271 0.00014381H24.2274C23.1397 0.00014381 22.2499 0.885554 22.2499 1.96787V3.47766L17.7492 3.47735V1.9678C17.7492 0.885482 16.8594 7.19051e-05 15.7717 7.19051e-05H15.572C14.4842 7.19051e-05 13.5944 0.885482 13.5944 1.9678V3.47758L9.09344 3.47727V1.96773C9.09344 0.88541 8.20361 0 7.11621 0H6.9165C5.82878 0 4.93895 0.88541 4.93895 1.96773V3.47751H3.99305C1.78747 3.47751 0 5.25675 0 7.45075V10.2069C0 10.3476 0.114658 10.462 0.256419 10.462L37.1803 10.4623Z" fill="#4FB783"/>
<path d="M2.8191 12.3356H0.256419C0.114969 12.3356 0 12.4497 0 12.5907V35.8887C0 38.1593 1.85008 40.0003 4.13208 40.0003H31.1938C31.7967 40.0003 32.374 39.7554 32.7915 39.3219L39.3843 32.4787C39.7791 32.0689 40 31.5226 40 30.9547V12.5901C40 12.4494 39.8853 12.335 39.7436 12.335H37.1809L2.81935 12.3353L2.8191 12.3356ZM6.8041 15.5927H13.3188C13.3957 15.5927 13.4577 15.6544 13.4577 15.731V19.6633C13.4577 19.7399 13.3957 19.8016 13.3188 19.8016H6.8041C6.72714 19.8016 6.66513 19.7399 6.66513 19.6633V15.731C6.66513 15.6544 6.72745 15.5927 6.8041 15.5927ZM16.9251 15.5927H23.4398C23.5167 15.5927 23.5787 15.6544 23.5787 15.731V19.6633C23.5787 19.7399 23.5167 19.8016 23.4398 19.8016H16.9251C16.8482 19.8016 16.7862 19.7399 16.7862 19.6633V15.731C16.7862 15.6544 16.8488 15.5927 16.9251 15.5927ZM27.0461 15.5927H33.5608C33.6378 15.5927 33.6998 15.6544 33.6998 15.731V19.6633C33.6998 19.7399 33.6378 19.8016 33.5608 19.8016H27.0461C26.9692 19.8016 26.9072 19.7399 26.9072 19.6633V15.731C26.9072 15.6544 26.9692 15.5927 27.0461 15.5927ZM33.6997 23.3917V27.3241C33.6997 27.4006 33.6377 27.4623 33.5608 27.4623L27.0461 27.4627C26.9692 27.4627 26.9072 27.401 26.9072 27.3244V23.3917C26.9072 23.3151 26.9692 23.2534 27.0461 23.2534H33.5608C33.6374 23.2537 33.6997 23.3154 33.6997 23.3917ZM16.7862 27.3244V23.3917C16.7862 23.3151 16.8482 23.2534 16.9251 23.2534H23.4398C23.5167 23.2534 23.5788 23.3151 23.5788 23.3917V27.3241C23.5788 27.4006 23.5168 27.4623 23.4398 27.4623L16.9251 27.4627C16.8488 27.4627 16.7862 27.4007 16.7862 27.3244ZM23.579 31.0528V34.9851C23.579 35.0617 23.517 35.1234 23.4401 35.1234L16.9251 35.1237C16.8481 35.1237 16.7861 35.062 16.7861 34.9854V31.0531C16.7861 30.9765 16.8481 30.9148 16.9251 30.9148H23.4398C23.5164 30.9145 23.579 30.9765 23.579 31.0528ZM6.80426 23.2538H13.3189C13.3959 23.2538 13.4579 23.3155 13.4579 23.392V27.3244C13.4579 27.401 13.3959 27.4627 13.3189 27.4627H6.80426C6.7273 27.4627 6.66529 27.401 6.66529 27.3244V23.3917C6.66529 23.3155 6.72761 23.2538 6.80426 23.2538ZM6.80426 30.9144H13.3189C13.3959 30.9144 13.4579 30.9761 13.4579 31.0527V34.9851C13.4579 35.0617 13.3959 35.1234 13.3189 35.1234L6.80426 35.1237C6.7273 35.1237 6.66529 35.062 6.66529 34.9854V31.053C6.66529 30.9764 6.72761 30.9144 6.80426 30.9144ZM38.1987 30.1688L37.9681 30.4116C37.7509 30.4813 30.1978 38.5982 30.1978 38.5982V37.196L30.1981 32.7397C30.1981 31.3254 31.3609 30.1686 32.782 30.1686L38.1987 30.1688Z" fill="#4FB783"/>
</svg>
