<svg width="50" height="50" viewBox="0 0 50 50" fill="none" xmlns="http://www.w3.org/2000/svg">
<g filter="url(#filter0_d_42_40)">
<circle cx="25" cy="23" r="20" fill="#4FB783"/>
</g>
<path d="M18.5892 16.29C18.1237 16.372 17.9128 17.3636 18.117 18.5049C18.3012 19.5548 18.775 20.3667 19.2114 20.427C19.7674 21.9218 20.6465 23.3719 21.7335 24.4355C22.3496 25.0372 23.0315 25.5123 23.7589 25.8009C24.2578 25.9997 24.7798 26.1089 25.3158 26.1089C25.8516 26.1089 26.3728 25.9999 26.8735 25.8009C27.6257 25.5019 28.3314 25.0042 28.9631 24.371C30.0241 23.3133 30.8802 21.884 31.4265 20.4155C31.8453 20.2927 32.2845 19.5077 32.4638 18.5049C32.6576 17.4172 32.4753 16.4699 32.0554 16.31C32.0695 16.0439 32.0797 15.7763 32.0797 15.5011C32.0682 11.5593 29.7566 9.26773 26.1124 9.02329C22.936 8.8104 20.5418 10.0728 19.4518 12.1715C19.0859 12.877 18.875 13.7603 18.7938 14.7182C18.6721 15.2182 18.6013 15.7371 18.6013 16.2745H18.6128C18.6128 16.2794 18.6128 16.2829 18.6122 16.2879C18.6046 16.2883 18.5968 16.2894 18.5892 16.2901L18.5892 16.29ZM19.3138 17.491C19.3598 17.3566 19.4202 17.252 19.4987 17.1963C19.5115 17.1897 19.5248 17.1878 19.5345 17.1811C19.5569 17.1683 19.5805 17.1544 19.6057 17.1511H19.6064C19.6925 17.1359 19.7824 17.1689 19.8713 17.2399C19.8713 17.2334 19.8733 17.2264 19.8733 17.2199C19.8976 16.9795 20.1639 15.2262 21.5984 14.7006C21.6148 14.694 21.6355 14.6914 21.653 14.6854C21.7479 14.6537 21.8444 14.6235 21.9501 14.6027C22.1993 14.5541 22.4781 14.5389 22.7891 14.5675C22.7891 14.5675 24.9726 15.3709 26.96 14.6606C27.1744 14.6556 27.3827 14.6543 27.575 14.6613C28.3972 14.693 28.9617 15.1183 29.5511 15.3931H29.5524C29.53 15.1227 29.3228 14.8462 29.3323 14.6613V14.6606C29.4265 14.688 29.5116 14.7281 29.5936 14.7717C30.019 15.2257 30.4302 15.9844 30.7572 17.2249C30.7572 17.2312 30.7572 17.2351 30.7585 17.2401C30.7598 17.2401 30.7598 17.2394 30.7605 17.2381C30.7605 17.2368 30.7605 17.2381 30.7629 17.2368V17.2394L30.7666 17.2331C30.8048 17.2032 30.8425 17.1839 30.8807 17.1687C30.9293 17.1498 30.9782 17.14 31.0255 17.1487C31.0465 17.1524 31.0676 17.1595 31.088 17.1687C31.3597 17.2956 31.4762 17.9299 31.3462 18.6541C31.2466 19.2082 31.03 19.6646 30.8011 19.8616C30.7551 19.8998 30.7073 19.9291 30.662 19.9456C30.6542 19.9479 30.6474 19.9479 30.6403 19.9499L30.5795 19.9564H30.5617C30.5483 19.9564 30.5361 19.962 30.5229 19.9601C30.4732 19.9523 30.4261 19.9269 30.3851 19.8867V19.8887C29.882 21.4558 28.9226 23.0176 27.7095 23.9658C27.3551 24.2436 26.9777 24.4664 26.5849 24.6251C26.5784 24.6281 26.5708 24.6301 26.5639 24.6322L26.1162 24.7687C26.104 24.7718 26.0925 24.7752 26.0804 24.7783C26.0352 24.7885 25.9942 24.8082 25.9484 24.8158C25.9343 24.8189 25.9204 24.8195 25.9059 24.8215L25.7314 24.8393C25.7169 24.8406 25.7027 24.8412 25.6889 24.8429C25.5649 24.8575 25.4412 24.8801 25.3145 24.8801C24.4742 24.8801 23.6793 24.5465 22.9684 24.0033C21.7335 23.0578 20.7561 21.4775 20.2449 19.8891H20.2442C20.2021 19.9273 20.1568 19.9523 20.1079 19.9618H20.1066C20.0027 19.979 19.8916 19.9273 19.7872 19.8221C19.5717 19.6077 19.3766 19.175 19.2841 18.6561C19.2778 18.6222 19.275 18.5873 19.2696 18.5541C19.275 18.1908 19.2893 17.8383 19.3139 17.4909L19.3138 17.491Z" fill="white"/>
<path d="M12.3099 33.9469C13.5434 36.2802 20.0321 37.0001 25.2816 37.0001H25.2894H25.2972C30.5453 37.0001 37.0351 36.2824 38.2685 33.9469C38.3652 33.7646 38.4306 33.5732 38.4839 33.3751C38.6116 32.8848 38.6146 32.3535 38.4688 31.8512C37.9243 29.9768 37.2133 28.7624 36.4963 27.9629C35.2322 26.5464 33.9594 26.4347 33.5739 26.3448C33.4785 26.3225 33.3797 26.3066 33.2818 26.2888C33.3179 26.3548 33.3543 26.4201 33.3871 26.4896C33.5255 26.786 33.6219 27.0946 33.674 27.4086C33.7636 27.439 33.8467 27.4746 33.9251 27.5165C34.7639 27.9655 35.0815 29.0139 34.6327 29.8529C34.3315 30.4156 33.748 30.7657 33.1093 30.7657C32.8274 30.7657 32.5459 30.6945 32.2961 30.561C31.4573 30.1127 31.1397 29.0649 31.5884 28.2253C31.8044 27.8219 32.1731 27.5248 32.6138 27.3935C32.5038 26.962 32.2573 26.4716 31.8606 26.1406C31.2112 26.102 30.6112 26.076 30.203 25.9492C30.1125 26.6983 27.9378 29.1578 26.5129 30.7027L25.895 28.319C26.3592 28.0449 26.4606 27.441 26.4606 26.9383H24.1177C24.1177 27.4368 24.2184 28.0349 24.673 28.3122L24.0653 30.7009C22.6398 29.1575 20.464 26.6972 20.3752 25.9494C19.9813 26.072 19.4101 26.1002 18.7882 26.1369C18.3511 26.4676 18.03 26.9483 17.913 27.3611C18.0512 27.4637 18.1634 27.6028 18.2374 27.7651C18.9019 28.0787 19.4887 28.7386 19.9381 29.6788C20.0134 29.8372 20.023 30.0158 19.9681 30.1788C20.2374 30.8721 20.3915 31.6302 20.3915 32.2667C20.3915 33.1586 20.3915 34.0021 19.4192 34.2185C19.3138 34.306 19.1823 34.3542 19.0438 34.3542H18.3943C18.0686 34.3542 17.8038 34.0892 17.8038 33.7634C17.811 33.4318 18.0759 33.1727 18.3943 33.1727H19.0438C19.1107 33.1727 19.1758 33.184 19.2383 33.2059C19.2775 33.1944 19.2899 33.1853 19.2899 33.1853C19.3622 33.057 19.3622 32.5236 19.3622 32.2669C19.3622 31.7491 19.2328 31.1247 19.006 30.5451C18.8882 30.4783 18.7932 30.3771 18.7348 30.2545C18.3407 29.4301 17.8051 28.8975 17.3702 28.8975C16.9251 28.8975 16.3628 29.4735 15.9709 30.3298C15.9069 30.4691 15.7944 30.5831 15.656 30.6505C15.4509 31.2068 15.3383 31.7784 15.3383 32.2664C15.3383 32.4817 15.3383 33.0533 15.4203 33.1872C15.4203 33.1872 15.4398 33.1985 15.491 33.2111C15.559 33.1853 15.6295 33.1718 15.7029 33.1718H16.3537C16.6653 33.1718 16.9243 33.416 16.9435 33.7278L16.9483 33.7463L16.9446 33.763C16.9446 34.0889 16.6796 34.3537 16.3541 34.3537H15.7033C15.5741 34.3537 15.4494 34.3107 15.3467 34.232C14.975 34.1619 14.7133 33.998 14.5474 33.7311C14.3465 33.4088 14.3094 32.9848 14.3094 32.266C14.3094 31.6354 14.455 30.9097 14.7193 30.2161C14.6805 30.0677 14.6935 29.9127 14.7579 29.7732C15.0335 29.171 15.3838 28.6551 15.7709 28.2821C15.9838 28.0768 16.2123 27.9121 16.4517 27.7918C16.5387 27.5874 16.6876 27.4157 16.871 27.3055C16.9307 26.9691 17.0707 26.6208 17.2733 26.2925C17.1824 26.309 17.0906 26.3235 17.0023 26.3441C16.6071 26.4372 15.2586 26.557 13.953 28.113C13.2815 28.9126 12.6211 30.0879 12.1092 31.8501C11.9694 32.3327 11.9677 32.8395 12.0819 33.3145C12.1361 33.5345 12.2046 33.7485 12.3099 33.9469ZM28.0894 32.9944C28.0894 32.8867 28.1871 32.7999 28.3073 32.7999H29.4898V31.6177C29.4898 31.4972 29.5766 31.3998 29.684 31.3998H30.8509C30.9579 31.3998 31.0452 31.4972 31.0452 31.6177V32.7999H32.2275C32.3479 32.7999 32.4449 32.8867 32.4449 32.9944V34.1611C32.4449 34.2687 32.3475 34.3555 32.2275 34.3555H31.0449V35.5378C31.0449 35.6582 30.9579 35.7557 30.8507 35.7557H29.6838C29.5764 35.7557 29.4896 35.6582 29.4896 35.5378V34.3555H28.3071C28.1871 34.3555 28.0892 34.2687 28.0892 34.1611L28.0894 32.9944Z" fill="white"/>
<path d="M34.0455 29.0389C34.0455 29.5543 33.6275 29.9723 33.1121 29.9723C32.5965 29.9723 32.1787 29.5543 32.1787 29.0389C32.1787 28.5232 32.5965 28.1055 33.1121 28.1055C33.6275 28.1055 34.0455 28.5232 34.0455 29.0389Z" fill="white"/>
<defs>
<filter id="filter0_d_42_40" x="0" y="0" width="50" height="50" filterUnits="userSpaceOnUse" color-interpolation-filters="sRGB">
<feFlood flood-opacity="0" result="BackgroundImageFix"/>
<feColorMatrix in="SourceAlpha" type="matrix" values="0 0 0 0 0 0 0 0 0 0 0 0 0 0 0 0 0 0 127 0" result="hardAlpha"/>
<feOffset dy="2"/>
<feGaussianBlur stdDeviation="2.5"/>
<feComposite in2="hardAlpha" operator="out"/>
<feColorMatrix type="matrix" values="0 0 0 0 0.309804 0 0 0 0 0.717647 0 0 0 0 0.513726 0 0 0 0.25 0"/>
<feBlend mode="normal" in2="BackgroundImageFix" result="effect1_dropShadow_42_40"/>
<feBlend mode="normal" in="SourceGraphic" in2="effect1_dropShadow_42_40" result="shape"/>
</filter>
</defs>
</svg>
