<svg width="52" height="52" viewBox="0 0 52 52" fill="none" xmlns="http://www.w3.org/2000/svg">
<g filter="url(#filter0_d_42_33)">
<circle cx="26" cy="24" r="20" fill="#4FB783"/>
</g>
<path d="M21.4692 10.8574C21.2853 11.1379 21.0624 11.4599 20.6564 12.1766C20.3821 12.6608 20.1085 13.1828 19.9078 13.6508C19.7072 14.1189 19.5888 14.5462 19.5888 14.7613C19.5888 15.8439 20.4321 16.7052 21.4706 16.7052C22.1837 16.7052 22.7852 16.2874 23.104 15.6816H23.0143C22.6407 15.6816 22.3293 15.3702 22.3293 14.9966V14.6542H21.9869C21.6133 14.6542 21.3018 14.3427 21.3018 13.9691V13.2841C21.3018 12.9105 21.6133 12.599 21.9869 12.599H22.3293V12.2692C21.9121 11.5293 21.6525 11.1381 21.4692 10.8574ZM23.0205 12.2569L23.0203 12.2583C23.015 12.286 23.015 12.2918 23.0143 12.2977V13.2844H21.9869V13.9694H23.0143V14.9969H23.6994V13.9694H24.7269V13.2844H23.6994V12.2569L23.0205 12.2569ZM26.7758 17.7366C24.1762 17.7366 21.6387 18.7634 19.4391 20.0886C19.4763 20.1675 19.5201 20.2485 19.5543 20.326C19.7029 20.6633 19.8205 20.9782 19.8827 21.2759C19.8864 21.2924 19.8914 21.3092 19.8949 21.3255C19.9001 21.3532 19.9033 21.381 19.9075 21.4085C19.9217 21.5002 19.9322 21.5906 19.9322 21.678C19.9322 22.1204 19.8189 22.5378 19.6206 22.9022C19.5809 22.9752 19.5385 23.0451 19.4921 23.1137C19.4458 23.1818 19.396 23.2483 19.3435 23.3116C18.8711 23.8836 18.1566 24.2494 17.3601 24.2494C17.3436 24.2494 17.3278 24.2469 17.3113 24.2455C17.2287 24.2442 17.1471 24.2403 17.0666 24.2309C17.0425 24.2283 17.0193 24.2231 16.9957 24.2192C16.9189 24.2075 16.8434 24.1942 16.7689 24.1763C16.7542 24.1724 16.7395 24.1685 16.7246 24.1646C16.1428 24.0153 15.6403 23.6676 15.293 23.1974C13.9135 24.4387 13.0826 25.3512 12.8574 25.6115C13.1177 25.9172 14.572 27.5963 16.9708 29.4528C19.5945 31.4837 23.1361 33.4911 26.7757 33.4911C29.6081 33.4911 32.3766 32.3877 34.7412 30.9867C34.849 30.6807 35.0607 30.4259 35.3359 30.2622V29.0386C35.3359 28.665 35.6474 28.3535 36.021 28.3535V24.9287C36.021 24.3655 36.4852 23.9013 37.0485 23.9013C37.6117 23.9013 38.0759 24.3655 38.0759 24.9287V28.3535C38.1755 28.3535 38.2702 28.3769 38.3562 28.4164C40.1065 26.9704 41.1535 25.8493 41.3851 25.5915C40.951 24.9677 35.7498 17.7366 26.7758 17.7366ZM17.3596 17.8731C17.1768 18.1442 16.9502 18.4648 16.5415 19.1668C16.2669 19.6386 15.9935 20.1466 15.7929 20.6023C15.5922 21.0579 15.4739 21.4736 15.4739 21.6779C15.4739 21.965 15.539 22.2357 15.6525 22.4786C15.6585 22.4882 15.6635 22.4985 15.6683 22.5088C15.8589 22.896 16.1773 23.2079 16.5688 23.3897C16.5738 23.3923 16.5784 23.395 16.5834 23.3975C16.6577 23.4313 16.735 23.4599 16.8142 23.4838C16.8288 23.4877 16.8442 23.4916 16.8589 23.4955C16.9183 23.5118 16.9793 23.5244 17.0407 23.5349C17.0676 23.5402 17.0944 23.5441 17.1217 23.5478C17.1898 23.5569 17.2586 23.5613 17.329 23.5624C17.3391 23.5627 17.349 23.5638 17.3591 23.5638C17.7513 23.5638 18.115 23.4464 18.4159 23.2434C18.4661 23.2097 18.5145 23.1735 18.5611 23.1352C18.654 23.0586 18.74 22.9733 18.8166 22.8804C18.8549 22.834 18.8911 22.7852 18.9251 22.7352C18.9377 22.7164 18.9484 22.6955 18.9606 22.6765C19.1406 22.3873 19.2461 22.0458 19.2461 21.6784C19.2461 21.4064 19.0122 20.7559 18.6829 20.103C18.6824 20.1016 18.6824 20.1005 18.6819 20.0993C18.5248 19.7877 18.3563 19.4718 18.179 19.167C17.7703 18.4648 17.5423 18.1442 17.3596 17.8731ZM27.1152 18.7641C30.8941 18.7641 33.9652 21.8348 33.9652 25.6141C33.9652 29.393 30.8945 32.4641 27.1152 32.4641C23.3363 32.4641 20.2652 29.3933 20.2652 25.6141C20.2652 21.8352 23.3359 18.7641 27.1152 18.7641ZM27.1152 19.4492C23.7064 19.4492 20.9504 22.2052 20.9504 25.614C20.9504 29.0228 23.7064 31.7788 27.1152 31.7788C30.524 31.7788 33.28 29.0228 33.28 25.614C33.28 22.2052 30.524 19.4492 27.1152 19.4492ZM27.1152 21.3328C29.4756 21.3328 31.3971 23.2536 31.3971 25.614C31.3969 26.2541 31.2459 26.8818 30.9703 27.4574C31.1287 27.7168 31.2251 28.0179 31.2251 28.3425C31.2251 29.2841 30.4542 30.055 29.5125 30.055C29.1112 30.055 28.7458 29.9091 28.453 29.6756C28.0216 29.8178 27.5709 29.8949 27.1159 29.8951C24.7555 29.8951 22.8347 27.9743 22.8347 25.6139C22.8349 25.1575 22.912 24.7059 23.0549 24.2734C22.8272 23.9826 22.6856 23.6216 22.6856 23.226C22.6856 22.2843 23.4565 21.5135 24.3982 21.5135C24.717 21.5135 25.0128 21.6075 25.269 21.7609C25.8453 21.4846 26.4742 21.333 27.1152 21.3328ZM27.1159 22.0178C26.6703 22.0181 26.2387 22.1261 25.8263 22.2873C26.0047 22.5575 26.1107 22.8797 26.1107 23.2258C26.1107 23.6966 25.918 24.1248 25.6077 24.4351C25.5302 24.5126 25.4451 24.5828 25.3543 24.6445C25.2632 24.7062 25.1655 24.7597 25.0632 24.803C24.9612 24.8463 24.8532 24.8805 24.7422 24.9032C24.6869 24.9149 24.63 24.9234 24.5729 24.9294C24.5158 24.9358 24.4569 24.9385 24.3984 24.9385C24.1399 24.9385 23.8961 24.8757 23.6759 24.772C23.6066 25.0505 23.5202 25.3264 23.52 25.6142C23.52 27.6044 25.1259 29.2103 27.1161 29.2103C27.4048 29.2101 27.6819 29.1234 27.961 29.0537C27.8606 28.8363 27.8005 28.5968 27.8005 28.3427C27.8005 27.8719 27.9931 27.4437 28.3034 27.1334C28.381 27.0559 28.466 26.9857 28.5569 26.924C28.6479 26.8623 28.7456 26.8089 28.8479 26.7655C28.95 26.7222 29.058 26.688 29.169 26.6653C29.2245 26.6536 29.2811 26.6451 29.3382 26.6392C29.3953 26.6327 29.4543 26.63 29.5128 26.63C29.8538 26.6302 30.1724 26.7343 30.44 26.9082C30.6026 26.4942 30.712 26.0612 30.7122 25.6137C30.7122 23.6235 29.1061 22.0178 27.1159 22.0178ZM24.3982 22.1983C23.8266 22.1983 23.3707 22.6543 23.3707 23.2258C23.3707 23.5003 23.4782 23.746 23.6509 23.9294L23.6796 23.9581C23.8234 24.0996 24.0044 24.1943 24.1993 24.2331C24.2638 24.2459 24.3298 24.253 24.3979 24.253C24.6835 24.253 24.9396 24.1386 25.125 23.9533C25.3103 23.7679 25.4245 23.5115 25.4247 23.2262C25.4247 23.1482 25.4151 23.0712 25.3979 22.9969C25.397 22.9916 25.3947 22.9877 25.394 22.9833C25.3772 22.9143 25.3536 22.8471 25.3231 22.7834C25.3199 22.7769 25.3165 22.7705 25.3133 22.7639C25.2818 22.7017 25.2444 22.6428 25.2009 22.588C25.1977 22.5841 25.1945 22.5815 25.1915 22.5776C25.147 22.5233 25.0967 22.4726 25.041 22.4279C25.0222 22.413 25.0052 22.396 24.9855 22.3825L24.9722 22.3721C24.8087 22.2625 24.6117 22.1983 24.3982 22.1983ZM37.0489 24.5865C36.9021 24.5865 36.7829 24.6693 36.7324 24.7932C36.7157 24.8344 36.7063 24.8801 36.7063 24.9289V28.3537H37.3913V24.9289C37.3913 24.7333 37.2445 24.5865 37.0489 24.5865ZM29.5126 27.3151C29.3699 27.3151 29.2342 27.3437 29.1112 27.3953C29.0498 27.421 28.9911 27.4531 28.9367 27.4896C28.8278 27.563 28.733 27.657 28.6597 27.7659C28.5493 27.9297 28.4858 28.1283 28.4858 28.3425C28.4858 28.4088 28.492 28.4744 28.5046 28.5386C28.542 28.7308 28.6344 28.9104 28.7723 29.0537L28.8037 29.0865C28.9876 29.2615 29.2362 29.3702 29.5128 29.3702C30.0843 29.3702 30.5403 28.9143 30.5403 28.3427C30.5403 28.0914 30.4483 27.865 30.3008 27.6873C30.2591 27.6373 30.2132 27.5916 30.1637 27.5508C30.155 27.543 30.146 27.5364 30.1369 27.5295C30.0889 27.4926 30.0378 27.4609 29.9844 27.4332C29.9708 27.4267 29.958 27.4187 29.9442 27.4125C29.8878 27.3862 29.8282 27.366 29.7676 27.3504C29.7568 27.3479 29.747 27.344 29.7362 27.3412C29.6635 27.3249 29.5887 27.3151 29.5126 27.3151ZM36.0214 29.0388V30.067C36.0242 30.067 36.0265 30.0663 36.0295 30.0663H38.0764V29.0475C38.075 29.0454 38.0734 29.0431 38.0722 29.0411C38.0665 29.0319 38.0738 29.0386 38.0761 29.0386H36.3636L36.0214 29.0388ZM36.0295 30.7513C35.9898 30.7513 35.9515 30.7566 35.9136 30.763C35.8749 30.7708 35.8359 30.7814 35.796 30.7958C35.577 30.8749 35.4118 31.0605 35.3618 31.2921C35.36 31.2994 35.3577 31.3068 35.3554 31.3141C35.3485 31.354 35.344 31.3944 35.344 31.4366V32.1217H38.7596V31.4366C38.7596 31.1575 38.6014 30.9252 38.3683 30.8171L38.3041 30.7944C38.2647 30.7804 38.2268 30.7694 38.189 30.7623C38.1509 30.7545 38.1124 30.752 38.0746 30.752L36.0295 30.7513ZM34.6589 32.8062V38.286H39.4465V32.8062H34.6589ZM36.7097 33.4913H37.3948C37.7684 33.4913 38.0798 33.8028 38.0798 34.1764V34.5188H38.4222C38.7958 34.5188 39.1073 34.8302 39.1073 35.2038V35.8889C39.1073 36.2625 38.7958 36.5739 38.4222 36.5739H38.0798V36.9163C38.0798 37.29 37.7684 37.6014 37.3948 37.6014H36.7097C36.3361 37.6014 36.0247 37.29 36.0247 36.9163V36.5739H35.6822C35.3086 36.5739 34.9972 36.2625 34.9972 35.8889V35.2038C34.9972 34.8302 35.3086 34.5188 35.6822 34.5188H36.0247V34.1764C36.0247 33.8028 36.3361 33.4913 36.7097 33.4913ZM36.7097 34.1764V35.2038H35.6822V35.8889H36.7097V36.9163H37.3948V35.8889H38.4222V35.2038H37.3948V34.1764H36.7097Z" fill="white"/>
<defs>
<filter id="filter0_d_42_33" x="0.285715" y="0.571429" width="51.4286" height="51.4286" filterUnits="userSpaceOnUse" color-interpolation-filters="sRGB">
<feFlood flood-opacity="0" result="BackgroundImageFix"/>
<feColorMatrix in="SourceAlpha" type="matrix" values="0 0 0 0 0 0 0 0 0 0 0 0 0 0 0 0 0 0 127 0" result="hardAlpha"/>
<feOffset dy="2.28571"/>
<feGaussianBlur stdDeviation="2.85714"/>
<feComposite in2="hardAlpha" operator="out"/>
<feColorMatrix type="matrix" values="0 0 0 0 0.309804 0 0 0 0 0.717647 0 0 0 0 0.513726 0 0 0 0.25 0"/>
<feBlend mode="normal" in2="BackgroundImageFix" result="effect1_dropShadow_42_33"/>
<feBlend mode="normal" in="SourceGraphic" in2="effect1_dropShadow_42_33" result="shape"/>
</filter>
</defs>
</svg>
