<svg width="40" height="40" viewBox="0 0 40 40" fill="none" xmlns="http://www.w3.org/2000/svg">
<path fill-rule="evenodd" clip-rule="evenodd" d="M31.3892 25.5893C33.841 26.9518 36.2942 28.3146 38.7459 29.6771C39.8011 30.263 40.2641 31.5064 39.8486 32.6403C37.7392 38.4031 31.5612 41.4449 25.7482 39.3233C13.845 34.9786 5.02187 26.1551 0.676742 14.2518C-1.44496 8.43887 1.59698 2.26076 7.35973 0.151407C8.49369 -0.264063 9.73701 0.198841 10.3244 1.25416C11.6855 3.70594 13.0483 6.15916 14.4107 8.61081C15.0494 9.76098 14.8993 11.1262 14.0251 12.1084C12.8803 13.3967 11.7357 14.6846 10.5909 15.9715C13.0346 21.9224 18.0775 26.9654 24.0284 29.4091C25.3153 28.2643 26.6033 27.1197 27.8915 25.9748C28.8751 25.1007 30.2392 24.9505 31.3891 25.5892L31.3892 25.5893Z" fill="#4FB783"/>
</svg>
