<svg width="40" height="37" viewBox="0 0 40 37" fill="none" xmlns="http://www.w3.org/2000/svg">
<path d="M11.106 0C5.01532 0 0.0761719 4.60239 0.0761719 10.2778V26.7222C0.0761719 32.3976 5.01532 37 11.106 37H28.7537C34.8443 37 39.7835 32.3976 39.7835 26.7222V10.2778C39.7835 4.60239 34.8443 0 28.7537 0H11.106ZM33.1656 4.11111C34.3833 4.11111 35.3716 5.032 35.3716 6.16667C35.3716 7.30133 34.3833 8.22222 33.1656 8.22222C31.9479 8.22222 30.9596 7.30133 30.9596 6.16667C30.9596 5.032 31.9479 4.11111 33.1656 4.11111ZM19.9298 8.22222C26.0205 8.22222 30.9596 12.8246 30.9596 18.5C30.9596 24.1754 26.0205 28.7778 19.9298 28.7778C13.8392 28.7778 8.90002 24.1754 8.90002 18.5C8.90002 12.8246 13.8392 8.22222 19.9298 8.22222ZM19.9298 12.3333C18.1747 12.3333 16.4914 12.983 15.2503 14.1395C14.0092 15.296 13.3119 16.8645 13.3119 18.5C13.3119 20.1355 14.0092 21.704 15.2503 22.8605C16.4914 24.017 18.1747 24.6667 19.9298 24.6667C21.685 24.6667 23.3683 24.017 24.6094 22.8605C25.8505 21.704 26.5477 20.1355 26.5477 18.5C26.5477 16.8645 25.8505 15.296 24.6094 14.1395C23.3683 12.983 21.685 12.3333 19.9298 12.3333Z" fill="white"/>
</svg>
