<svg width="18" height="26" viewBox="0 0 18 26" fill="none" xmlns="http://www.w3.org/2000/svg">
<path fill-rule="evenodd" clip-rule="evenodd" d="M8.5101 0C3.81058 0 0 3.92546 0 8.73162C0 9.72324 0.420711 10.9658 1.04289 12.4512C1.6651 13.9369 2.50757 15.6267 3.39655 17.3156C5.17457 20.6932 7.16314 24.0883 7.98398 25.678C8.08494 25.8756 8.28829 26 8.51018 26C8.73208 26 8.93542 25.8756 9.03638 25.678C9.85717 24.0882 11.8456 20.6931 13.6238 17.3156C14.5128 15.6267 15.346 13.9369 15.9682 12.4512C16.5904 10.9656 17.0204 9.72319 17.0204 8.73162C17.0204 3.92583 13.2124 0 8.51027 0H8.5101ZM8.5101 4.79962C10.1882 4.79962 11.556 6.17442 11.556 7.85482C11.556 9.53289 10.188 10.91 8.5101 10.91C6.83223 10.91 5.4549 9.53295 5.4549 7.85482C5.4549 6.17469 6.83197 4.79962 8.5101 4.79962Z" fill="white"/>
</svg>
