<svg width="40" height="30" viewBox="0 0 40 30" fill="none" xmlns="http://www.w3.org/2000/svg">
<path fill-rule="evenodd" clip-rule="evenodd" d="M26.8477 15.0003L39.9191 1.86663C39.973 2.08011 40.0003 2.3006 40 2.5221V27.4789C40.0003 27.7004 39.973 27.9209 39.9191 28.1343L26.8477 15.0003ZM1.33745 29.7554C1.64902 29.9167 1.99035 30.0003 2.33602 30H37.6637C38.068 30 38.4651 29.8859 38.8158 29.6684L25.5333 16.3215L23.1235 18.742C22.297 19.554 21.2138 19.9933 20.0964 19.9699C18.9736 19.9662 17.8919 19.5112 17.0626 18.6941L14.7039 16.3234L1.33745 29.7554ZM0.133323 1.6799C0.0443475 1.95025 -0.000914521 2.235 1.40476e-05 2.52174V27.4785C-0.000916029 27.7653 0.0443467 28.05 0.133323 28.3203L13.3896 15L0.133323 1.6799ZM37.6618 0.000871775L2.3357 0.00120637C1.99002 0.000871796 1.6487 0.0845206 1.33713 0.245797L15.3085 14.2865L15.3144 14.2922L18.2831 17.2758C18.7832 17.7667 19.4342 18.0387 20.1101 18.0397C20.7701 18.0574 21.4115 17.8025 21.903 17.3263L24.925 14.2919L24.9294 14.2872L38.8158 0.33125C38.4652 0.114094 38.0681 0 37.6638 0L37.6618 0.000871775Z" fill="#4FB783"/>
</svg>
