<svg width="52" height="52" viewBox="0 0 52 52" fill="none" xmlns="http://www.w3.org/2000/svg">
<g filter="url(#filter0_d_42_47)">
<circle cx="26" cy="24" r="20" fill="#4FB783"/>
</g>
<path d="M40.8892 18.2692C40.6481 18.0281 40.4069 17.787 40.1176 17.5941C36.8867 15.0383 33.27 13.9774 29.1713 14.3632C26.2297 14.6525 23.5775 15.6652 21.2628 17.5459C21.0217 17.7388 20.8288 17.9317 20.6359 18.1245C20.2983 18.4621 20.3466 18.8961 20.7323 19.1854C21.8415 20.0052 22.9506 20.7768 24.0597 21.5966C24.3008 21.7413 24.5419 21.8377 24.783 21.9824C24.9759 22.0306 25.1688 22.0306 25.1688 21.7895C25.1688 21.693 25.1206 21.5001 25.0242 21.4037C24.1079 20.5839 23.1917 19.8606 22.4201 18.9443C23.915 17.7388 25.5546 16.9672 27.2906 16.5332C27.0495 17.0636 26.8084 17.4977 26.6637 18.0281C26.5191 18.5586 26.4708 19.1372 26.5673 19.6677C26.6155 20.1981 26.8084 20.7286 27.0977 21.2108C27.3871 21.693 27.7729 22.127 28.1586 22.4646C29.6053 23.6702 31.8236 23.6702 33.3185 22.4646C34.09 21.8377 34.6205 21.0179 34.8616 20.0535C35.1509 18.7997 34.8616 17.6423 34.09 16.5332C36.0672 17.0636 37.755 17.9317 39.2981 19.2337C39.491 19.4266 36.2118 21.5484 36.3565 21.8859C36.5012 22.1753 36.7905 21.9824 36.9834 21.8859C38.3819 21.2108 39.6356 20.391 40.8894 19.4748C41.227 19.0408 41.227 18.655 40.8894 18.2692H40.8892ZM29.3157 19.4266C28.5924 19.4266 28.0137 18.8479 28.0137 18.1245C28.0137 17.4012 28.5924 16.8708 29.3157 16.8708C30.039 16.8708 30.5695 17.4494 30.5695 18.1728C30.5695 18.8961 30.039 19.4266 29.3157 19.4266Z" fill="white"/>
<path d="M41.3229 27.5278C41.1782 27.3349 40.7442 27.0455 39.4422 27.2384L33.607 28.3475C33.5588 29.0227 33.173 29.5049 32.5461 29.7942C30.4243 30.7105 28.206 31.0962 25.9393 30.9033L23.9139 30.7587C23.6728 30.7587 23.4317 30.4693 23.4317 30.18C23.4317 29.8907 23.6728 29.6496 23.9622 29.6496L26.084 29.8424C28.2058 29.9871 30.2793 29.6496 32.305 28.7815C32.4979 28.6851 32.739 28.5404 32.739 28.2511C32.739 27.9618 32.5461 27.6242 32.2568 27.4313C31.5816 26.9973 30.7618 27.0938 29.9903 27.2384C27.9167 27.5278 26.3254 27.3349 24.8787 26.4669C24.4447 26.2257 24.0589 25.8882 23.6731 25.5988C23.2391 25.2613 22.8051 24.9237 22.3711 24.6826C21.262 24.1039 20.1046 23.8146 18.9955 23.8146C18.0793 23.8146 17.2113 24.0075 16.3915 24.3451V23.9593C16.3915 23.477 16.1504 23.2842 15.6681 23.3324C14.4626 23.3806 13.2088 23.3806 12.0032 23.4288H11.7139C11.7621 24.1039 11.8103 24.7308 11.9068 25.3577C12.2443 27.7206 13.0641 29.8907 14.3179 31.8675C14.3661 31.964 14.5108 32.0604 14.6555 32.0604H15.9092C16.3432 32.0604 16.5361 31.8193 16.5361 31.3853V31.0477C18.2722 31.7711 23.3838 33.9893 23.6246 34.134C24.4444 34.5198 25.3124 34.8573 26.2286 34.8573C27.4824 34.8091 28.7844 34.3269 29.9418 33.7482C33.6549 31.8675 37.1752 30.0833 40.9366 28.3955C41.2259 28.2026 41.6117 27.9133 41.3223 27.5275L41.3229 27.5278Z" fill="white"/>
<defs>
<filter id="filter0_d_42_47" x="0.285715" y="0.571429" width="51.4286" height="51.4286" filterUnits="userSpaceOnUse" color-interpolation-filters="sRGB">
<feFlood flood-opacity="0" result="BackgroundImageFix"/>
<feColorMatrix in="SourceAlpha" type="matrix" values="0 0 0 0 0 0 0 0 0 0 0 0 0 0 0 0 0 0 127 0" result="hardAlpha"/>
<feOffset dy="2.28571"/>
<feGaussianBlur stdDeviation="2.85714"/>
<feComposite in2="hardAlpha" operator="out"/>
<feColorMatrix type="matrix" values="0 0 0 0 0.309804 0 0 0 0 0.717647 0 0 0 0 0.513726 0 0 0 0.25 0"/>
<feBlend mode="normal" in2="BackgroundImageFix" result="effect1_dropShadow_42_47"/>
<feBlend mode="normal" in="SourceGraphic" in2="effect1_dropShadow_42_47" result="shape"/>
</filter>
</defs>
</svg>
