<svg width="40" height="33" viewBox="0 0 40 33" fill="none" xmlns="http://www.w3.org/2000/svg">
<path d="M39.3469 0.255859C37.8335 1.19592 34.797 2.47707 33.012 2.8466C32.9596 2.86081 32.9169 2.87909 32.8665 2.8933C31.289 1.26495 29.1276 0.255859 26.7353 0.255859C21.9138 0.255859 18.0042 4.34704 18.0042 9.39248C18.0042 9.65846 17.9828 10.1478 18.0042 10.4077C11.4986 10.4077 6.54705 6.84235 2.9964 2.28622C2.61029 3.3014 2.44149 4.90539 2.44149 6.41191C2.44149 9.25645 4.56606 12.0502 7.87417 13.7821C7.26494 13.9466 6.59361 14.0643 5.89512 14.0643C4.76784 14.0643 3.57459 13.7537 2.48224 12.8116C2.48224 12.8461 2.48224 12.8786 2.48224 12.9152C2.48224 16.8906 6.51406 19.5971 10.0996 20.3503C9.37204 20.799 7.90522 20.8437 7.18927 20.8437C6.6848 20.8437 4.89978 20.6021 4.42248 20.5087C5.41977 23.7674 9.01698 25.5988 12.4454 25.6638C9.76397 27.8647 7.90328 28.6809 2.41239 28.6809H0.541992C4.01115 31.0077 8.42908 32.7437 12.8567 32.7437C27.2727 32.7437 35.4664 21.2457 35.4664 10.4077C35.4664 10.2331 35.4625 9.86759 35.4567 9.50009C35.4567 9.46355 35.4664 9.42903 35.4664 9.39248C35.4664 9.33766 35.4509 9.28487 35.4509 9.23005C35.445 8.95392 35.4392 8.69607 35.4334 8.56207C36.9662 7.40476 38.2953 5.96117 39.3469 4.31658C37.9402 4.97036 36.4307 5.40892 34.8455 5.60789C36.4637 4.59271 38.7629 2.17252 39.3469 0.255859Z" fill="white"/>
</svg>
