<svg width="53" height="54" viewBox="0 0 53 54" fill="none" xmlns="http://www.w3.org/2000/svg">
<g filter="url(#filter0_d_42_26)">
<circle cx="26.5" cy="24.5" r="20.5" fill="#4FB783"/>
</g>
<path d="M34.1351 32.7355C34.0134 32.8121 33.8917 32.8842 33.7611 32.9473C33.7295 32.9654 33.6979 32.9833 33.6619 33.0014C33.5042 33.0735 33.3421 33.1366 33.1707 33.1907C33.13 33.2042 33.0896 33.2133 33.0489 33.2223C32.9182 33.263 32.7786 33.2899 32.639 33.3169C32.5893 33.3259 32.5398 33.335 32.4903 33.3394C32.3145 33.3617 32.1342 33.3799 31.954 33.3799C31.7737 33.3799 31.5935 33.3617 31.4176 33.3392C31.3682 33.3348 31.3185 33.3257 31.269 33.3167C31.1294 33.2897 30.9895 33.2626 30.859 33.2221C30.8183 33.2131 30.7779 33.204 30.7373 33.1905C30.5661 33.1364 30.4037 33.0735 30.246 33.0012C30.21 32.9831 30.1784 32.9652 30.1468 32.9471C30.0161 32.884 29.8946 32.8119 29.7729 32.7353C29.7503 32.722 29.7234 32.713 29.7008 32.6949V36.8L31.6341 34.8623C31.7242 34.7768 31.8369 34.7317 31.954 34.7317C32.071 34.7317 32.1837 34.7768 32.2738 34.8625L34.2071 36.8002V32.6951C34.1846 32.713 34.1576 32.722 34.1351 32.7355ZM31.9539 26.1697C30.2146 26.1697 28.7995 27.5848 28.7995 29.3241C28.7995 30.0902 29.079 30.8337 29.5881 31.4105C30.1874 32.0911 31.0483 32.4785 31.9539 32.4785C32.8596 32.4785 33.7204 32.091 34.3198 31.4105C34.8289 30.8337 35.1083 30.0902 35.1083 29.3241C35.1083 27.5848 33.6933 26.1697 31.9539 26.1697ZM33.6257 28.7427L31.8232 30.5452C31.7331 30.6309 31.6204 30.676 31.5033 30.676C31.3862 30.676 31.2736 30.6309 31.1835 30.5452L30.2822 29.644C30.1066 29.4684 30.1066 29.1799 30.2822 29.004C30.458 28.8282 30.7463 28.8282 30.9221 29.004L31.5033 29.5901L32.986 28.103C33.1618 27.9272 33.4501 27.9272 33.6259 28.103C33.8015 28.2786 33.8015 28.5671 33.6257 28.7427ZM34.6577 12.2003H19.3364C19.0885 12.2003 18.8857 12.4031 18.8857 12.6509V31.5773C18.8857 31.8251 19.0885 32.0279 19.3364 32.0279H28.7995V31.8658C28.2182 31.1448 27.8983 30.2524 27.8983 29.3241C27.8983 27.0891 29.7189 25.2685 31.9539 25.2685C33.2292 25.2685 34.3648 25.8587 35.1083 26.7825V12.6508C35.1083 12.403 34.9055 12.2002 34.6577 12.2002V12.2003ZM31.0527 23.0154H22.9414C22.6935 23.0154 22.4908 22.8126 22.4908 22.5648C22.4908 22.3169 22.6935 22.1141 22.9414 22.1141H31.0527C31.3005 22.1141 31.5033 22.3169 31.5033 22.5648C31.5033 22.8126 31.3005 23.0154 31.0527 23.0154ZM31.9539 19.4104H22.0401C21.7923 19.4104 21.5895 19.2076 21.5895 18.9597C21.5895 18.7119 21.7923 18.5091 22.0401 18.5091H31.9539C32.2018 18.5091 32.4046 18.7119 32.4046 18.9597C32.4046 19.2076 32.2018 19.4104 31.9539 19.4104ZM32.8552 15.8053H21.1389C20.891 15.8053 20.6883 15.6026 20.6883 15.3547C20.6883 15.1069 20.891 14.9041 21.1389 14.9041H32.8552C33.103 14.9041 33.3058 15.1069 33.3058 15.3547C33.3058 15.6026 33.103 15.8053 32.8552 15.8053Z" fill="white"/>
<defs>
<filter id="filter0_d_42_26" x="0.142857" y="0.485714" width="52.7143" height="52.7143" filterUnits="userSpaceOnUse" color-interpolation-filters="sRGB">
<feFlood flood-opacity="0" result="BackgroundImageFix"/>
<feColorMatrix in="SourceAlpha" type="matrix" values="0 0 0 0 0 0 0 0 0 0 0 0 0 0 0 0 0 0 127 0" result="hardAlpha"/>
<feOffset dy="2.34286"/>
<feGaussianBlur stdDeviation="2.92857"/>
<feComposite in2="hardAlpha" operator="out"/>
<feColorMatrix type="matrix" values="0 0 0 0 0.309804 0 0 0 0 0.717647 0 0 0 0 0.513726 0 0 0 0.25 0"/>
<feBlend mode="normal" in2="BackgroundImageFix" result="effect1_dropShadow_42_26"/>
<feBlend mode="normal" in="SourceGraphic" in2="effect1_dropShadow_42_26" result="shape"/>
</filter>
</defs>
</svg>
